<?xml version="1.0" standalone="no"?>
<!DOCTYPE svg PUBLIC "-//W3C//DTD SVG 20010904//EN"
 "http://www.w3.org/TR/2001/REC-SVG-20010904/DTD/svg10.dtd">
<svg version="1.0" xmlns="http://www.w3.org/2000/svg"
 width="120.000000pt" height="120.000000pt" viewBox="0 0 120.000000 120.000000"
 preserveAspectRatio="xMidYMid meet">
<metadata>
Created by potrace 1.11, written by Peter Selinger 2001-2013
</metadata>
<g transform="translate(0.000000,120.000000) scale(0.100000,-0.100000)"
fill="#000000" stroke="none">
<path d="M457 1174 c-1 -1 -22 -4 -47 -6 -66 -7 -116 -35 -152 -84 -17 -24
-35 -44 -39 -44 -19 0 -69 -60 -69 -84 0 -14 4 -26 9 -26 21 0 44 -314 42
-570 -1 -74 -2 -169 -4 -210 l-2 -75 40 -18 c60 -29 77 -31 260 -31 186 0 232
4 286 27 46 19 53 30 50 84 -1 45 0 46 54 45 45 -2 143 26 176 49 65 46 102
178 102 359 -1 98 -7 138 -32 191 -33 68 -110 108 -211 109 l-35 0 4 46 c2 25
-2 51 -8 57 -6 6 -11 19 -11 28 0 10 -9 21 -20 24 -11 3 -20 11 -20 16 0 5 -7
9 -15 9 -9 0 -55 19 -103 41 -47 23 -97 42 -109 43 -13 0 -23 3 -23 6 0 3 -12
7 -27 8 -42 5 -94 8 -96 6z m528 -436 c21 -26 24 -86 11 -236 -12 -150 -32
-178 -126 -177 l-45 0 2 160 c2 88 4 183 6 210 l4 50 44 5 c37 5 96 -2 104
-12z"/>
</g>
</svg>
